<svg width="294.449219" height="59.000000" viewBox="0 0 294.449 59" fill="none" xmlns="http://www.w3.org/2000/svg" xmlns:xlink="http://www.w3.org/1999/xlink">
	<desc>
			Created with Pixso.
	</desc>
	<defs/>
	<path id="Vector" d="M41.8184 48.8306L2.33887 21.5977C-1.66211 18.8381 -0.301758 13.0922 4.68652 11.741L46.6465 0.352722C47.5352 0.0319824 48.4873 -0.0720825 49.4248 0.0490112C50.3623 0.170166 51.2568 0.513062 52.0342 1.04932C52.8125 1.58551 53.4521 2.29956 53.8984 3.13214C54.3457 3.96478 54.5869 4.89197 54.6035 5.83673L52.1172 44.4557C51.8223 49.0397 45.8184 51.5902 41.8184 48.8306Z" fill="#E9327C" fill-opacity="1.000000" fill-rule="nonzero"/>
	<path id="Vector" d="M29.2959 55.5531L6.03711 10.0681C5.50586 9.02753 5.27148 7.86035 5.36133 6.69531C5.45117 5.53021 5.86035 4.41248 6.54492 3.46539C7.22949 2.51831 8.16211 1.77863 9.24023 1.32794C10.3184 0.877258 11.5 0.733032 12.6553 0.911255L55.7588 7.56378C56.751 7.71698 57.6934 8.10352 58.5068 8.69165C59.3203 9.27979 59.9834 10.0527 60.4404 10.9468C60.8975 11.8409 61.1357 12.8308 61.1357 13.835C61.1348 14.8391 60.8965 15.8289 60.4395 16.7228L40.583 55.5553C40.0498 56.5929 39.2412 57.4634 38.2451 58.0711C37.249 58.6788 36.1055 59.0002 34.9385 59C33.7725 58.9998 32.6289 58.6779 31.6328 58.0698C30.6377 57.4617 29.8291 56.5909 29.2959 55.5531Z" fill="#1DACE3" fill-opacity="1.000000" fill-rule="nonzero"/>
	<path id="Vector" d="M54.498 7.36841L33.0107 4.05206L6.62988 11.2151L17.1602 31.8153L41.8184 48.8307C42.3623 49.2018 42.9609 49.4861 43.5918 49.6735L52.958 31.3576L54.498 7.36841Z" fill="#3A68B8" fill-opacity="1.000000" fill-rule="nonzero"/>
	<path id="Vector" d="M163.335 12.6849C163.335 11.8862 163.572 11.1055 164.016 10.4414C164.459 9.77734 165.09 9.25977 165.828 8.9541C166.565 8.6485 167.378 8.56848 168.161 8.7243C168.944 8.88013 169.664 9.26471 170.229 9.82947C170.793 10.3942 171.178 11.1138 171.334 11.8971C171.489 12.6804 171.409 13.4924 171.104 14.2302C170.798 14.9681 170.28 15.5988 169.616 16.0425C168.952 16.4863 168.172 16.7231 167.373 16.7231C166.306 16.7122 165.285 16.2833 164.529 15.5283C163.774 14.7733 163.346 13.7525 163.335 12.6849ZM164.009 18.6971L170.74 18.6971L170.74 41.1304L164.009 41.1304L164.009 18.6971Z" fill="#FFFFFF" fill-opacity="1.000000" fill-rule="nonzero"/>
	<path id="Vector" d="M199.811 29.9139C199.889 31.3967 199.673 32.8803 199.176 34.2795C198.679 35.6786 197.909 36.9656 196.913 38.0665C195.917 39.1675 194.713 40.0605 193.37 40.6944C192.027 41.3282 190.572 41.6904 189.089 41.7599C187.841 41.8279 186.594 41.6174 185.438 41.144C184.281 40.6705 183.245 39.9458 182.403 39.0223L182.403 50.1047L175.674 50.1047L175.674 18.6973L182.403 18.6973L182.403 20.8054C183.245 19.8824 184.282 19.1581 185.438 18.685C186.595 18.2119 187.842 18.0019 189.089 18.0701C190.572 18.1393 192.026 18.5012 193.369 19.1348C194.712 19.7684 195.917 20.6613 196.913 21.762C197.909 22.8628 198.679 24.1497 199.176 25.5487C199.673 26.9477 199.889 28.4312 199.811 29.9139ZM193.081 29.9139C193.055 28.8636 192.719 27.8444 192.116 26.9839C191.514 26.1234 190.67 25.4597 189.692 25.076C188.714 24.6924 187.645 24.6057 186.617 24.8268C185.59 25.048 184.651 25.5673 183.918 26.3195C183.185 27.0717 182.688 28.0236 182.493 29.0559C182.299 30.0883 182.412 31.1553 182.82 32.1234C183.229 33.0914 183.913 33.9177 184.789 34.4985C185.664 35.0794 186.691 35.3892 187.742 35.3891C188.464 35.4216 189.184 35.3011 189.855 35.0356C190.527 34.7701 191.135 34.3655 191.639 33.8484C192.144 33.3314 192.532 32.7135 192.781 32.0354C193.029 31.3573 193.132 30.6343 193.081 29.9139Z" fill="#FFFFFF" fill-opacity="1.000000" fill-rule="nonzero"/>
	<path id="Vector" d="M220.583 34.3967C220.583 39.5571 216.096 41.7556 211.25 41.7556C209.292 41.9327 207.326 41.5184 205.607 40.5662C203.888 39.6141 202.493 38.1678 201.604 36.4146L207.437 33.0961C207.673 33.9064 208.182 34.6109 208.876 35.0916C209.569 35.5723 210.408 35.8 211.25 35.7368C212.865 35.7368 213.671 35.2417 213.671 34.346C213.671 31.8769 202.635 33.1797 202.635 25.4158C202.635 20.526 206.761 18.0591 211.437 18.0591C213.191 18.004 214.928 18.4202 216.466 19.2644C218.005 20.1085 219.289 21.3497 220.185 22.8587L214.443 25.955C214.191 25.3661 213.772 24.8643 213.238 24.512C212.704 24.1598 212.077 23.9728 211.437 23.9744C210.271 23.9744 209.553 24.4146 209.553 25.231C209.547 27.8057 220.583 26.1002 220.583 34.3967Z" fill="#FFFFFF" fill-opacity="1.000000" fill-rule="nonzero"/>
	<path id="Vector" d="M245.179 18.6968L245.179 41.1301L238.449 41.1301L238.449 39.0175C237.672 39.9482 236.686 40.6815 235.569 41.1573C234.454 41.6331 233.242 41.838 232.032 41.7551C227.501 41.7551 223.644 38.5246 223.644 32.4662L223.644 18.6968L230.373 18.6968L230.373 31.4847C230.316 32.0194 230.377 32.5601 230.551 33.0689C230.725 33.5778 231.007 34.0427 231.378 34.4313C231.75 34.8199 232.202 35.1227 232.702 35.3189C233.203 35.515 233.74 35.5997 234.277 35.567C236.744 35.567 238.458 34.1321 238.458 30.9456L238.458 18.6968L245.179 18.6968Z" fill="#FFFFFF" fill-opacity="1.000000" fill-rule="nonzero"/>
	<path id="Vector" d="M283.752 27.3538L283.752 41.1298L277.022 41.1298L277.022 27.9392C277.022 25.6967 275.943 24.2597 273.791 24.2597C271.547 24.2597 270.292 25.831 270.292 28.4783L270.292 41.1298L263.561 41.1298L263.561 27.9392C263.561 25.6967 262.484 24.2597 260.33 24.2597C258.088 24.2597 256.831 25.831 256.831 28.4783L256.831 41.1298L250.102 41.1298L250.102 18.6965L256.842 18.6965L256.842 20.7519C257.54 19.8367 258.455 19.1108 259.506 18.6407C260.556 18.1705 261.707 17.9711 262.854 18.0605C264.006 18.0042 265.153 18.2473 266.184 18.7659C267.213 19.2847 268.092 20.0614 268.732 21.0204C269.478 20.017 270.466 19.2191 271.604 18.7015C272.742 18.1838 273.993 17.9633 275.239 18.0605C280.389 18.0693 283.752 21.7466 283.752 27.3538Z" fill="#FFFFFF" fill-opacity="1.000000" fill-rule="nonzero"/>
	<path id="Vector" d="M294.449 13.5627C294.449 16.3216 292.212 18.5582 289.453 18.5582C286.694 18.5582 284.458 16.3216 284.458 13.5627C284.458 10.8038 286.694 8.56726 289.453 8.56726C292.212 8.56726 294.449 10.8038 294.449 13.5627Z" fill="#FFFFFF" fill-opacity="1.000000" fill-rule="evenodd"/>
	<path id="Vector" d="M71.4541 8.37811L78.1855 8.37811L78.1855 41.1302L71.4541 41.1302L71.4541 8.37811ZM81.9971 29.9136C81.9902 27.5616 82.6807 25.2604 83.9814 23.3013C85.2832 21.3422 87.1367 19.8132 89.3076 18.9081C91.4775 18.0029 93.8682 17.7622 96.1758 18.2165C98.4834 18.6708 100.604 19.7996 102.271 21.4601C103.937 23.1205 105.071 25.2379 105.533 27.544C105.995 29.8502 105.762 32.2415 104.863 34.4151C103.965 36.5887 102.441 38.4468 100.486 39.7543C98.5322 41.0617 96.2324 41.7596 93.8809 41.7596C92.3184 41.7763 90.7695 41.4816 89.3223 40.8926C87.875 40.3037 86.5605 39.4324 85.4541 38.3295C84.3477 37.2267 83.4717 35.9144 82.8789 34.4694C82.2852 33.0244 81.9854 31.4756 81.9971 29.9136ZM99.0479 29.9136C99.0215 28.899 98.6963 27.9149 98.1133 27.084C97.5312 26.2532 96.7158 25.6127 95.7715 25.2427C94.8262 24.8726 93.793 24.7894 92.8008 25.0034C91.8086 25.2174 90.9023 25.7192 90.1934 26.4459C89.4854 27.1727 89.0068 28.0922 88.8184 29.0894C88.6299 30.0866 88.7393 31.1172 89.1338 32.0524C89.5283 32.9875 90.1895 33.7857 91.0352 34.347C91.8799 34.9084 92.873 35.2079 93.8877 35.2083C94.582 35.2281 95.2734 35.1037 95.918 34.843C96.5625 34.5822 97.1465 34.1908 97.6318 33.6934C98.1172 33.1959 98.4951 32.6032 98.7402 31.9527C98.9854 31.3021 99.0928 30.6078 99.0566 29.9136L99.0479 29.9136ZM132.605 18.6903L132.605 40.0035C132.605 47.5407 126.728 50.725 120.762 50.725C118.661 50.8835 116.559 50.4608 114.683 49.5032C112.807 48.5455 111.231 47.09 110.128 45.296L115.869 41.9753C116.333 42.9116 117.071 43.684 117.985 44.1893C118.9 44.6947 119.946 44.9088 120.986 44.8031C121.649 44.8937 122.324 44.8342 122.962 44.6289C123.6 44.4237 124.183 44.078 124.668 43.6173C125.154 43.1566 125.53 42.5928 125.769 41.9673C126.008 41.3418 126.103 40.6707 126.048 40.0035L126.048 37.9393C125.259 38.9033 124.256 39.6692 123.118 40.1755C121.98 40.6819 120.74 40.9147 119.496 40.8552C116.535 40.7631 113.727 39.5222 111.664 37.395C109.602 35.2679 108.449 32.4217 108.449 29.4592C108.449 26.4966 109.602 23.6504 111.664 21.5233C113.727 19.3961 116.535 18.1552 119.496 18.0631C120.74 18.0036 121.98 18.2363 123.118 18.7427C124.256 19.2491 125.259 20.015 126.048 20.979L126.048 18.6903L132.605 18.6903ZM126.057 29.4581C126.101 28.3745 125.82 27.3025 125.25 26.3798C124.681 25.4572 123.848 24.726 122.859 24.2803C121.87 23.8347 120.771 23.695 119.702 23.8792C118.634 24.0632 117.645 24.5629 116.862 25.3137C116.079 26.0645 115.539 27.0321 115.312 28.0923C115.083 29.1524 115.178 30.2566 115.582 31.2628C115.986 32.269 116.683 33.1312 117.581 33.7386C118.479 34.3461 119.538 34.6709 120.623 34.6713C121.33 34.7211 122.04 34.6223 122.706 34.3812C123.373 34.1402 123.981 33.7623 124.493 33.2719C125.005 32.7815 125.408 32.1894 125.678 31.5337C125.947 30.878 126.076 30.1732 126.057 29.4647L126.057 29.4581ZM136.417 29.8982C136.409 27.5463 137.101 25.2451 138.401 23.2859C139.703 21.3268 141.556 19.7978 143.727 18.8926C145.897 17.9875 148.288 17.7468 150.596 18.2011C152.903 18.6554 155.024 19.7842 156.69 21.4446C158.355 23.1051 159.491 25.2224 159.953 27.5286C160.414 29.8348 160.182 32.2261 159.283 34.3997C158.385 36.5732 156.861 38.4314 154.906 39.7388C152.951 41.0463 150.652 41.7442 148.301 41.7442C146.739 41.7609 145.191 41.4667 143.745 40.8787C142.3 40.2907 140.985 39.4207 139.879 38.3195C138.773 37.2183 137.897 35.9079 137.303 34.4647C136.708 33.0215 136.407 31.4744 136.417 29.9136L136.417 29.8982ZM153.468 29.8982C153.441 28.883 153.117 27.8981 152.534 27.0666C151.951 26.235 151.136 25.5939 150.19 25.2234C149.245 24.8529 148.211 24.7695 147.219 24.9835C146.226 25.1975 145.318 25.6996 144.609 26.4268C143.9 27.154 143.422 28.0741 143.233 29.072C143.045 30.0698 143.155 31.1011 143.55 32.0367C143.944 32.9724 144.606 33.7708 145.452 34.3322C146.299 34.8936 147.292 35.193 148.307 35.1929C149 35.2113 149.689 35.0864 150.331 34.826C150.974 34.5657 151.556 34.1755 152.04 33.6799C152.524 33.1842 152.901 32.5939 153.146 31.9457C153.393 31.2977 153.502 30.6058 153.468 29.9136L153.468 29.8982Z" fill="#FFFFFF" fill-opacity="1.000000" fill-rule="nonzero"/>
</svg>
