<svg width="217.644531" height="58.902893" viewBox="0 0 217.645 58.9029" fill="none" xmlns="http://www.w3.org/2000/svg" xmlns:xlink="http://www.w3.org/1999/xlink">
	<desc>
			Created with Pixso.
	</desc>
	<defs/>
	<path id="Vector" d="M17.9565 56.3024L11.9976 45.9807L20.7432 30.8745L26.3003 40.501L59.1069 40.4833L49.7979 56.4448L17.9565 56.3024Z" fill="#FFAD64" fill-opacity="1.000000" fill-rule="nonzero"/>
	<path id="Vector" d="M64.9648 30.2346L59.0054 40.5562L41.5503 40.5356L47.1084 30.9094L30.6899 2.50696L49.1675 2.58801L64.9648 30.2346Z" fill="#ADD4D3" fill-opacity="1.000000" fill-rule="nonzero"/>
	<path id="Vector" d="M18.8745 2.45129L30.793 2.45129L39.5029 17.5783L28.3872 17.5779L11.999 45.998L2.83057 29.9554L18.8745 2.45129Z" fill="#FB8351" fill-opacity="1.000000" fill-rule="nonzero"/>
	<path id="Vector" d="M32.2461 0.0616455L32.2109 0L17.4668 0L0 29.9432L11.9902 50.9223L12.0049 50.8969L16.5376 58.7477L51.2021 58.9029L63.376 38.0295L63.2949 38.0295L67.792 30.2404L50.5938 0.142151L32.2461 0.0616455ZM43.6519 20.0302L43.7437 20.0302L35.0767 4.97742L47.7412 5.0329L62.1377 30.2277L57.6313 38.0327L45.8228 38.0389L49.9399 30.9081L43.6519 20.0302ZM29.2437 4.9032L35.1538 15.1267L26.9712 15.1264L12.9629 39.4199L12.0073 41.0706L5.66211 29.9681L20.2832 4.9032L29.2437 4.9032ZM23.562 30.8543L29.8037 20.0297L37.9883 20.03L44.2773 30.9095L40.1592 38.0421L27.7153 38.0488L23.562 30.8543ZM14.834 45.9906L17.2085 41.8726L20.7397 35.7729L24.8853 42.9536L37.3271 42.9468L37.3071 42.9816L54.7998 43.0023L48.3931 53.9871L19.3755 53.8572L14.834 45.9906Z" fill="#333237" fill-opacity="1.000000" fill-rule="evenodd"/>
	<path id="Vector" d="M82.0713 50.3734L82.0713 38.8959L77.8291 38.8959L77.8291 37.6074L87.939 37.6074L87.939 38.8959L83.6968 38.8959L83.6968 50.3734L82.0713 50.3734Z" fill="#FFFFFF" fill-opacity="1.000000" fill-rule="nonzero"/>
	<path id="Vector" d="M92.4556 50.5722C90.7773 50.5722 89.522 50.1691 88.6895 49.363C87.8564 48.5569 87.4404 47.3146 87.4404 45.6362C87.4404 44.1297 87.7974 42.947 88.5107 42.0879C89.2378 41.2157 90.3809 40.7795 91.9404 40.7795C92.8652 40.7795 93.625 40.9514 94.2197 41.295C94.8276 41.6253 95.2773 42.0879 95.5679 42.6826C95.8716 43.2641 96.0239 43.9249 96.0239 44.665L96.0239 46.4292L89.0659 46.4292C89.1187 47.1428 89.2705 47.7044 89.522 48.1142C89.7861 48.5238 90.1758 48.8211 90.6914 49.0062C91.2197 49.1779 91.9141 49.2639 92.7729 49.2639C93.7373 49.2639 94.623 49.0987 95.4292 48.7683L95.4292 50.037C95.0195 50.2088 94.5566 50.341 94.0415 50.4335C93.5391 50.5259 93.0107 50.5722 92.4556 50.5722ZM89.0659 45.2597L94.5767 45.2597L94.5767 44.4865C94.5767 43.72 94.3721 43.132 93.9619 42.7223C93.5659 42.2994 92.9048 42.0879 91.98 42.0879C90.8564 42.0879 90.0903 42.3522 89.6802 42.8809C89.2705 43.4094 89.0659 44.2024 89.0659 45.2597Z" fill="#FFFFFF" fill-opacity="1.000000" fill-rule="nonzero"/>
	<path id="Vector" d="M102.847 50.5722C101.208 50.5722 99.9922 50.1493 99.1992 49.3035C98.4062 48.4446 98.0098 47.2353 98.0098 45.6758C98.0098 44.024 98.459 42.795 99.3579 41.9888C100.256 41.1827 101.465 40.7795 102.985 40.7795C103.606 40.7795 104.122 40.8258 104.532 40.9184C104.941 40.9976 105.338 41.1298 105.721 41.3148L105.721 42.6033C105.007 42.2598 104.195 42.0879 103.283 42.0879C102.12 42.0879 101.221 42.3655 100.587 42.9205C99.9521 43.4623 99.6353 44.3808 99.6353 45.6758C99.6353 46.9182 99.9131 47.83 100.468 48.4115C101.023 48.9798 101.941 49.2639 103.223 49.2639C104.135 49.2639 104.974 49.0922 105.741 48.7485L105.741 50.0568C105.331 50.2286 104.888 50.3541 104.413 50.4335C103.95 50.5259 103.428 50.5722 102.847 50.5722Z" fill="#FFFFFF" fill-opacity="1.000000" fill-rule="nonzero"/>
	<path id="Vector" d="M107.563 50.3734L107.563 37.0126L109.188 37.0126L109.188 41.9883C109.625 41.6315 110.133 41.3408 110.715 41.1161C111.31 40.8914 111.997 40.779 112.776 40.779C113.913 40.779 114.766 41.0566 115.333 41.6117C115.902 42.1667 116.186 43.0389 116.186 44.2282L116.186 50.3734L114.561 50.3734L114.561 44.2878C114.561 43.4684 114.375 42.9002 114.005 42.5829C113.649 42.2526 113.054 42.0873 112.221 42.0873C111.693 42.0873 111.145 42.2062 110.576 42.4442C110.021 42.6688 109.559 42.9662 109.188 43.3362L109.188 50.3734L107.563 50.3734Z" fill="#FFFFFF" fill-opacity="1.000000" fill-rule="nonzero"/>
	<path id="Vector" d="M122.669 50.5721C121.347 50.5721 120.29 50.2814 119.497 49.6998C118.704 49.1183 118.308 48.3386 118.308 47.3607C118.308 46.4621 118.585 45.689 119.14 45.0414C119.695 44.3939 120.455 43.819 121.42 43.3168C120.904 42.8015 120.468 42.3191 120.111 41.8698C119.755 41.4205 119.576 40.8785 119.576 40.2443C119.576 39.4513 119.847 38.7839 120.389 38.2421C120.944 37.6871 121.724 37.4096 122.728 37.4096C123.706 37.4096 124.466 37.6672 125.008 38.1826C125.549 38.698 125.82 39.3852 125.82 40.2443C125.82 40.9579 125.629 41.5592 125.245 42.0482C124.862 42.5372 124.314 43.0327 123.601 43.5349L126.891 46.885C127.115 46.396 127.228 45.7748 127.228 45.0215L127.228 44.7441L128.517 44.7441L128.517 45.0215C128.517 45.5371 128.457 46.0392 128.338 46.5282C128.22 47.0172 128.047 47.4401 127.823 47.7969L129.607 49.6008L128.615 50.4928L127.029 48.9268C126.567 49.495 125.966 49.9113 125.226 50.1757C124.486 50.44 123.633 50.5721 122.669 50.5721ZM122.589 42.7419C123.21 42.3588 123.68 41.9954 123.997 41.6517C124.314 41.2949 124.473 40.8456 124.473 40.3038C124.473 39.8015 124.334 39.405 124.056 39.1143C123.792 38.8104 123.35 38.6584 122.728 38.6584C122.094 38.6584 121.631 38.817 121.34 39.1342C121.063 39.4513 120.924 39.8412 120.924 40.3038C120.924 40.7267 121.07 41.1165 121.36 41.4733C121.665 41.8301 122.074 42.253 122.589 42.7419ZM122.669 49.4025C123.435 49.4025 124.089 49.2902 124.631 49.0656C125.186 48.8276 125.655 48.4775 126.039 48.015L122.411 44.3079C121.552 44.7044 120.911 45.1339 120.488 45.5964C120.079 46.0458 119.874 46.6207 119.874 47.3212C119.874 48.0082 120.138 48.5303 120.667 48.8871C121.195 49.2307 121.863 49.4025 122.669 49.4025Z" fill="#FB8351" fill-opacity="1.000000" fill-rule="nonzero"/>
	<path id="Vector" d="M78.4697 28.341L78.4697 10.6649L83.6299 10.6649L83.6299 24.3885L91.5894 24.3885L91.5894 28.341L78.4697 28.341Z" fill="#FB8351" fill-opacity="1.000000" fill-rule="nonzero"/>
	<path id="Vector" d="M99.8906 28.6157C97.292 28.6157 95.3706 28.0392 94.1265 26.8864C92.9004 25.7336 92.2876 24.0502 92.2876 21.8361C92.2876 19.6404 92.9097 17.9661 94.1538 16.8133C95.3984 15.6423 97.3105 15.0566 99.8906 15.0566C102.489 15.0566 104.41 15.6423 105.654 16.8133C106.917 17.9661 107.548 19.6404 107.548 21.8361C107.548 24.0502 106.926 25.7336 105.682 26.8864C104.438 28.0392 102.507 28.6157 99.8906 28.6157ZM99.8906 24.8553C100.732 24.8553 101.336 24.6175 101.702 24.1417C102.086 23.666 102.278 22.8974 102.278 21.8361C102.278 20.7932 102.086 20.0338 101.702 19.558C101.336 19.0639 100.732 18.8169 99.8906 18.8169C99.0669 18.8169 98.4722 19.0639 98.1064 19.558C97.7402 20.0338 97.5576 20.7932 97.5576 21.8361C97.5576 22.8974 97.7402 23.666 98.1064 24.1417C98.4722 24.6175 99.0669 24.8553 99.8906 24.8553Z" fill="#FB8351" fill-opacity="1.000000" fill-rule="nonzero"/>
	<path id="Vector" d="M115.19 33.1719C114.55 33.1719 113.855 33.1445 113.104 33.0895C112.354 33.053 111.641 32.9798 110.964 32.87C110.305 32.7603 109.756 32.6321 109.317 32.4857L109.317 29.192C109.811 29.3567 110.378 29.494 111.019 29.6038C111.677 29.7135 112.345 29.7958 113.022 29.8508C113.699 29.9056 114.321 29.9332 114.889 29.9332C115.858 29.9332 116.618 29.8782 117.167 29.7684C117.734 29.6769 118.018 29.5031 118.018 29.2469C118.018 29.0274 117.926 28.881 117.743 28.8078C117.56 28.7528 117.212 28.7254 116.7 28.7254L113.27 28.7254C111.934 28.7254 110.899 28.515 110.168 28.0942C109.454 27.655 109.097 27.0054 109.097 26.1454C109.097 24.9376 109.765 24.096 111.101 23.6203C110.351 23.2359 109.802 22.7511 109.454 22.1655C109.106 21.58 108.933 20.8389 108.933 19.9423C108.933 18.2588 109.5 17.0237 110.634 16.2368C111.787 15.4501 113.443 15.0566 115.603 15.0566C116.06 15.0566 116.572 15.0932 117.139 15.1664C117.707 15.2214 118.118 15.2763 118.375 15.3311L123.479 15.3311L123.37 18.4601L121.641 18.4601C121.97 18.881 122.135 19.3934 122.135 19.9972C122.135 21.3329 121.741 22.3943 120.955 23.1811C120.186 23.9495 118.969 24.3339 117.304 24.3339C117.066 24.3339 116.81 24.3248 116.536 24.3064C116.261 24.2698 116.005 24.2424 115.767 24.224C115.364 24.2607 115.017 24.3339 114.724 24.4437C114.431 24.5534 114.285 24.7364 114.285 24.9926C114.285 25.1755 114.367 25.3037 114.532 25.3768C114.697 25.4318 114.925 25.4592 115.218 25.4592L118.21 25.4592C119.545 25.4592 120.598 25.7703 121.366 26.3925C122.135 27.0146 122.519 27.9294 122.519 29.1372C122.519 30.418 121.924 31.4061 120.735 32.1014C119.545 32.8151 117.697 33.1719 115.19 33.1719ZM115.63 21.5068C116.435 21.5068 116.993 21.3695 117.304 21.095C117.615 20.8206 117.771 20.3632 117.771 19.7228C117.771 19.0822 117.615 18.6156 117.304 18.3229C116.993 18.0302 116.435 17.8837 115.63 17.8837C114.879 17.8837 114.331 18.0302 113.983 18.3229C113.653 18.5974 113.489 19.0639 113.489 19.7228C113.489 20.3449 113.645 20.8023 113.956 21.095C114.285 21.3695 114.843 21.5068 115.63 21.5068Z" fill="#FB8351" fill-opacity="1.000000" fill-rule="nonzero"/>
	<path id="Vector" d="M131.895 28.6157C129.296 28.6157 127.375 28.0392 126.13 26.8864C124.904 25.7336 124.292 24.0502 124.292 21.8361C124.292 19.6404 124.914 17.9661 126.158 16.8133C127.402 15.6423 129.315 15.0566 131.895 15.0566C134.493 15.0566 136.414 15.6423 137.658 16.8133C138.921 17.9661 139.552 19.6404 139.552 21.8361C139.552 24.0502 138.93 25.7336 137.686 26.8864C136.441 28.0392 134.511 28.6157 131.895 28.6157ZM131.895 24.8553C132.736 24.8553 133.339 24.6175 133.707 24.1417C134.09 23.666 134.283 22.8974 134.283 21.8361C134.283 20.7932 134.09 20.0338 133.707 19.558C133.339 19.0639 132.736 18.8169 131.895 18.8169C131.072 18.8169 130.477 19.0639 130.11 19.558C129.744 20.0338 129.562 20.7932 129.562 21.8361C129.562 22.8974 129.744 23.666 130.11 24.1417C130.477 24.6175 131.072 24.8553 131.895 24.8553Z" fill="#FB8351" fill-opacity="1.000000" fill-rule="nonzero"/>
	<path id="Vector" d="M141.82 13.6014L141.82 9.86859L147.393 9.86859L147.393 13.6014L141.82 13.6014ZM142.231 28.3406L142.231 19.0909L140.339 19.0909L140.777 15.3307L147.393 15.3307L147.393 28.3406L142.231 28.3406Z" fill="#FFFFFF" fill-opacity="1.000000" fill-rule="nonzero"/>
	<path id="Vector" d="M149.867 34.2697L149.867 15.3311L154.342 15.3311L154.588 16.374C155.118 15.9532 155.695 15.6329 156.317 15.4135C156.958 15.1755 157.699 15.0566 158.541 15.0566C160.48 15.0566 161.972 15.5506 163.015 16.5387C164.076 17.5085 164.606 19.1646 164.606 21.5067C164.606 23.8307 164.048 25.5963 162.932 26.8041C161.816 28.0118 160.279 28.6155 158.321 28.6155C157.022 28.6155 155.924 28.3686 155.027 27.8745L155.027 34.2697L149.867 34.2697ZM157.003 24.8553C157.754 24.8553 158.331 24.59 158.733 24.0593C159.136 23.5287 159.337 22.7053 159.337 21.5891C159.337 20.5095 159.145 19.7775 158.76 19.3933C158.394 19.009 157.827 18.8169 157.058 18.8169C156.29 18.8169 155.613 19.0731 155.027 19.5854L155.027 24.1966C155.321 24.4161 155.613 24.5808 155.906 24.6906C156.198 24.8004 156.564 24.8553 157.003 24.8553Z" fill="#FFFFFF" fill-opacity="1.000000" fill-rule="nonzero"/>
	<path id="Vector" d="M171.483 28.6155C170.367 28.6155 169.314 28.5333 168.327 28.3686C167.356 28.2222 166.589 28.0301 166.021 27.7921L166.021 24.0867C166.662 24.3796 167.421 24.6082 168.298 24.7729C169.196 24.9376 169.956 25.02 170.576 25.02C171.236 25.02 171.729 25.0017 172.059 24.965C172.408 24.9285 172.58 24.7729 172.58 24.4985C172.58 24.1875 172.279 23.9495 171.675 23.7849C171.072 23.6201 170.312 23.3822 169.397 23.0712C168.207 22.6503 167.319 22.1564 166.734 21.5891C166.149 21.0219 165.856 20.1984 165.856 19.1187C165.856 17.8196 166.369 16.8224 167.394 16.1271C168.418 15.4135 170.028 15.0566 172.224 15.0566C173.065 15.0566 173.935 15.1206 174.831 15.2487C175.728 15.3768 176.432 15.5232 176.945 15.6879L176.945 19.311C176.395 19.0731 175.792 18.8992 175.134 18.7895C174.493 18.6796 173.908 18.6248 173.376 18.6248C172.792 18.6248 172.269 18.6522 171.812 18.7071C171.354 18.7619 171.126 18.9175 171.126 19.1737C171.126 19.4664 171.383 19.6769 171.895 19.8049C172.425 19.9331 173.13 20.1344 174.007 20.4088C174.997 20.7015 175.765 21.0219 176.314 21.3695C176.88 21.7172 177.274 22.1379 177.494 22.6321C177.731 23.1262 177.851 23.739 177.851 24.4711C177.851 25.7886 177.31 26.8132 176.231 27.5451C175.169 28.2587 173.586 28.6155 171.483 28.6155Z" fill="#FFFFFF" fill-opacity="1.000000" fill-rule="nonzero"/>
	<path id="Vector" d="M184.501 28.6151C182.982 28.6151 181.793 28.1852 180.933 27.3251C180.074 26.4651 179.644 25.2026 179.644 23.5374L179.644 15.3307L184.804 15.3307L184.804 23.1257C184.804 24.2601 185.38 24.8275 186.532 24.8275C186.953 24.8275 187.365 24.736 187.768 24.553C188.17 24.3701 188.49 24.1412 188.729 23.8668L188.729 15.3307L193.888 15.3307L193.888 28.3406L189.058 28.3406L188.921 27.3525C188.409 27.7185 187.776 28.0205 187.027 28.2583C186.295 28.4962 185.453 28.6151 184.501 28.6151Z" fill="#FFFFFF" fill-opacity="1.000000" fill-rule="nonzero"/>
	<path id="Vector" d="M196.346 28.3411L196.346 15.3311L201.121 15.3311L201.258 16.374C201.826 15.9898 202.457 15.6788 203.152 15.4409C203.866 15.1847 204.644 15.0566 205.486 15.0566C206.327 15.0566 206.986 15.1755 207.461 15.4135C207.938 15.6512 208.322 15.9989 208.614 16.4564C209.2 16.0356 209.859 15.697 210.591 15.4409C211.34 15.1847 212.22 15.0566 213.226 15.0566C214.744 15.0566 215.86 15.4591 216.574 16.2642C217.288 17.0511 217.645 18.2588 217.645 19.8873L217.645 28.3411L212.566 28.3411L212.566 20.4912C212.566 19.9056 212.448 19.494 212.209 19.256C211.973 18.9998 211.579 18.8718 211.029 18.8718C210.315 18.8718 209.73 19.128 209.274 19.6403C209.31 19.8782 209.328 20.107 209.328 20.3265C209.328 20.5277 209.328 20.7565 209.328 21.0127L209.328 28.3411L204.552 28.3411L204.552 20.4088C204.552 19.8782 204.461 19.494 204.278 19.256C204.094 18.9998 203.748 18.8718 203.235 18.8718C202.887 18.8718 202.548 18.9633 202.219 19.1463C201.889 19.3293 201.597 19.5488 201.341 19.8049L201.341 28.3411L196.346 28.3411Z" fill="#FFFFFF" fill-opacity="1.000000" fill-rule="nonzero"/>
	<path id="Vector" d="M138.011 50.736C136.636 50.736 135.493 50.4782 134.581 49.9628C133.683 49.4341 133.009 48.7007 132.56 47.7625C132.11 46.811 131.886 45.7009 131.886 44.4322C131.886 43.0446 132.098 41.8353 132.52 40.8046C132.942 39.7738 133.603 38.9808 134.502 38.4258C135.401 37.8576 136.563 37.5734 137.991 37.5734C138.731 37.5734 139.398 37.6262 139.993 37.732C140.601 37.8378 141.169 37.983 141.699 38.1682L141.699 39.5954C141.169 39.3972 140.608 39.2452 140.013 39.1394C139.418 39.0205 138.792 38.961 138.13 38.961C136.98 38.961 136.068 39.1791 135.395 39.6152C134.721 40.0513 134.238 40.679 133.947 41.4984C133.656 42.3177 133.51 43.2957 133.51 44.4322C133.51 46.0048 133.881 47.2206 134.621 48.0797C135.375 48.9255 136.558 49.3484 138.169 49.3484C138.764 49.3484 139.365 49.302 139.973 49.2095C140.594 49.117 141.169 48.9717 141.699 48.7735L141.699 50.2206C141.182 50.3792 140.621 50.5046 140.013 50.5972C139.418 50.6897 138.751 50.736 138.011 50.736Z" fill="#FFFFFF" fill-opacity="1.000000" fill-rule="nonzero"/>
	<path id="Vector" d="M148.373 50.7355C146.734 50.7355 145.539 50.3192 144.785 49.4866C144.045 48.6408 143.676 47.4249 143.676 45.8391C143.676 44.2664 144.053 43.0573 144.805 42.2115C145.558 41.3657 146.749 40.9428 148.373 40.9428C149.999 40.9428 151.189 41.3657 151.941 42.2115C152.694 43.0573 153.071 44.2664 153.071 45.8391C153.071 47.4249 152.702 48.6408 151.961 49.4866C151.222 50.3192 150.025 50.7355 148.373 50.7355ZM148.373 49.3479C149.496 49.3479 150.29 49.0703 150.752 48.5153C151.214 47.947 151.446 47.055 151.446 45.8391C151.446 44.6232 151.209 43.7379 150.732 43.1829C150.27 42.6146 149.483 42.3304 148.373 42.3304C147.264 42.3304 146.47 42.6146 145.995 43.1829C145.533 43.7379 145.301 44.6232 145.301 45.8391C145.301 47.055 145.533 47.947 145.995 48.5153C146.458 49.0703 147.25 49.3479 148.373 49.3479Z" fill="#FFFFFF" fill-opacity="1.000000" fill-rule="nonzero"/>
	<path id="Vector" d="M155.058 50.5376L155.058 49.1699L156.525 49.1699L156.525 50.5376L155.058 50.5376Z" fill="#FFFFFF" fill-opacity="1.000000" fill-rule="nonzero"/>
</svg>
