<svg width="212.298828" height="59.000000" viewBox="0 0 212.299 59" fill="none" xmlns="http://www.w3.org/2000/svg" xmlns:xlink="http://www.w3.org/1999/xlink">
	<desc>
			Created with Pixso.
	</desc>
	<defs/>
	<path id="Vector" d="M105.236 6.43512C107.289 4.38239 110.617 4.38239 112.67 6.43512C114.723 8.48798 114.723 11.8162 112.67 13.869L100.154 26.3845C96.5615 21.5688 96.9512 14.7197 101.325 10.3457L105.236 6.43512Z" fill="#4F9E91" fill-opacity="1.000000" fill-rule="evenodd"/>
	<path id="Vector" d="M123.128 34.672C125.181 36.7247 125.181 40.0531 123.128 42.1058C121.076 44.1586 117.747 44.1586 115.694 42.1058L103.179 29.5905C107.994 25.9971 114.844 26.3873 119.218 30.7614L123.128 34.672Z" fill="#EBE1C5" fill-opacity="1.000000" fill-rule="evenodd"/>
	<path id="Vector" d="M94.8906 52.5645C92.8379 54.6173 89.5098 54.6173 87.457 52.5645C85.4033 50.5116 85.4033 47.1833 87.457 45.1305L99.9717 32.6152C103.565 37.4309 103.175 44.28 98.8008 48.6539L94.8906 52.5645Z" fill="#EBCC6E" fill-opacity="1.000000" fill-rule="evenodd"/>
	<path id="Vector" d="M76.999 24.3267C74.9453 22.2738 74.9453 18.9456 76.999 16.8927C79.0518 14.8399 82.3799 14.8399 84.4326 16.8927L96.9482 29.4082C92.1328 33.0015 85.2832 32.6111 80.9092 28.2373L76.999 24.3267Z" fill="#ED834E" fill-opacity="1.000000" fill-rule="evenodd"/>
	<path id="Vector" d="M102.438 51.0315C105.466 47.666 106.872 43.3596 106.659 39.1195L112.67 45.1301C112.685 45.1451 112.699 45.16 112.715 45.175L112.715 49.4662C112.715 52.3693 110.361 54.7227 107.458 54.7227C105.1 54.7227 103.104 53.1701 102.438 51.0315Z" fill="#ED834E" fill-opacity="1.000000" fill-rule="evenodd"/>
	<path id="Vector" d="M78.5312 31.8751C81.8965 34.9022 86.2031 36.3091 90.4434 36.0956L84.4326 42.1063C84.417 42.1212 84.4023 42.1363 84.3877 42.1512L80.0967 42.1512C77.1934 42.1514 74.8398 39.7978 74.8398 36.8947C74.8398 34.5368 76.3926 32.5414 78.5312 31.8751Z" fill="#4F9E91" fill-opacity="1.000000" fill-rule="evenodd"/>
	<path id="Vector" d="M121.595 27.1248C118.23 24.0978 113.924 22.6909 109.684 22.9042L115.694 16.8937C115.709 16.8787 115.724 16.8636 115.739 16.8486L120.03 16.8486C122.934 16.8486 125.287 19.2021 125.287 22.1053C125.287 24.4633 123.734 26.4586 121.595 27.1248Z" fill="#EBCC6E" fill-opacity="1.000000" fill-rule="evenodd"/>
	<path id="Vector" d="M97.6885 7.9679C94.6611 11.3333 93.2549 15.6396 93.4678 19.8798L87.457 13.8692C87.4424 13.8542 87.4268 13.8393 87.4121 13.8244L87.4121 9.5332C87.4121 6.63007 89.7656 4.27649 92.6689 4.27649C95.0264 4.27649 97.0225 5.82922 97.6885 7.9679Z" fill="#EBE1C5" fill-opacity="1.000000" fill-rule="evenodd"/>
	<path id="Vector" d="M92.668 0C87.4033 0 83.1348 4.26825 83.1348 9.53339L83.1348 11.3876C79.9678 10.56 76.457 11.3871 73.9746 13.8694C70.252 17.5925 70.252 23.6287 73.9746 27.3517L75.2861 28.6628C72.4609 30.3174 70.5635 33.3846 70.5635 36.8949C70.5635 42.16 74.832 46.4283 80.0967 46.4283L81.9512 46.4283C81.123 49.5959 81.9502 53.1064 84.4326 55.5885C88.1562 59.3115 94.1924 59.3115 97.915 55.5885L101.825 51.678C105.275 48.2283 106.887 43.6363 106.659 39.1196L112.67 45.1303C116.393 48.8533 122.43 48.8533 126.152 45.1303C129.876 41.4072 129.876 35.371 126.152 31.6481L124.842 30.3372C127.666 28.6826 129.563 25.6154 129.563 22.1051C129.563 16.84 125.295 12.5717 120.03 12.5717L118.176 12.5717C119.004 9.40399 118.176 5.89349 115.694 3.41119C111.971 -0.311829 105.935 -0.311829 102.212 3.41119L98.3008 7.32184C94.8516 10.7715 93.2402 15.3634 93.4678 19.8801L87.457 13.8694C87.4424 13.8545 87.4268 13.8395 87.4121 13.8246L87.4121 9.53339C87.4121 6.63031 89.7656 4.27686 92.668 4.27686C95.0264 4.27686 97.0215 5.82947 97.6885 7.96808C97.8857 7.7486 98.0898 7.53308 98.3008 7.32184L100.9 4.72223C99.2461 1.89722 96.1787 0 92.668 0ZM115.738 16.8486C115.724 16.8635 115.709 16.8786 115.694 16.8936L109.684 22.9041C113.924 22.6907 118.229 24.0975 121.595 27.1247C123.734 26.4584 125.287 24.463 125.287 22.1051C125.287 19.202 122.934 16.8486 120.03 16.8486L115.738 16.8486ZM84.3877 42.1514C84.4023 42.1364 84.418 42.1213 84.4326 42.1063L90.4434 36.0957C86.2031 36.3091 81.8965 34.9022 78.5312 31.8753C76.3926 32.5416 74.8398 34.5369 74.8398 36.8949C74.8398 39.798 77.1934 42.1514 80.0967 42.1514L84.3877 42.1514ZM78.3672 31.726C78.2041 31.5752 78.0439 31.4206 77.8857 31.2622L77.8857 31.2623C78.0439 31.4208 78.2041 31.5752 78.3672 31.726ZM107.458 59C103.948 59 100.881 57.1026 99.2266 54.2776L101.825 51.678C102.037 51.4668 102.241 51.2513 102.438 51.0317C103.104 53.1704 105.101 54.7231 107.458 54.7231C110.361 54.7231 112.715 52.3697 112.715 49.4666L112.715 45.1754C113.947 46.3912 115.428 47.2036 116.992 47.6122L116.992 49.4666C116.992 54.7317 112.724 59 107.458 59ZM112.67 6.4353C110.617 4.38263 107.289 4.38263 105.236 6.4353L101.325 10.3459C96.9512 14.72 96.5605 21.569 100.154 26.3848L112.67 13.8693C114.723 11.8164 114.723 8.48816 112.67 6.4353ZM123.127 42.1062C125.181 40.0533 125.181 36.7251 123.127 34.6722L119.217 30.7616C114.844 26.3878 107.994 25.9974 103.179 29.5907L115.694 42.1062C117.747 44.1591 121.076 44.1591 123.127 42.1062ZM94.8906 52.5644C92.8379 54.6172 89.5098 54.6172 87.457 52.5644C85.4043 50.5115 85.4043 47.1833 87.457 45.1304L99.9727 32.6149C103.565 37.4307 103.176 44.2799 98.8018 48.6537L94.8906 52.5644ZM76.999 16.8936C74.9463 18.9464 74.9463 22.2746 76.999 24.3275L80.9092 28.2381C85.2832 32.612 92.1328 33.0023 96.9482 29.4091L84.4326 16.8936C82.3799 14.8408 79.0518 14.8408 76.999 16.8936Z" fill="#3D3A2C" fill-opacity="1.000000" fill-rule="evenodd"/>
	<path id="Vector" d="M0 19.2781L4.6748 19.2781L4.6748 33.8057L12.7051 33.8057L12.7051 37.7413L0 37.7413L0 19.2781Z" fill="#FFFFFF" fill-opacity="1.000000" fill-rule="nonzero"/>
	<path id="Vector" d="M21.1934 38.1376C19.626 38.1376 18.2529 37.8558 17.0732 37.2924C15.8936 36.7112 14.9775 35.9188 14.3262 34.9152C13.6924 33.8937 13.375 32.7228 13.375 31.402C13.375 30.0814 13.6924 28.9192 14.3262 27.9155C14.9775 26.8941 15.8936 26.1017 17.0732 25.5383C18.2529 24.9571 19.626 24.6666 21.1934 24.6666C22.7607 24.6666 24.1338 24.9571 25.3145 25.5383C26.4941 26.1017 27.4004 26.8941 28.0342 27.9155C28.6865 28.9192 29.0117 30.0814 29.0117 31.402C29.0117 32.7228 28.6865 33.8937 28.0342 34.9152C27.4004 35.9188 26.4941 36.7112 25.3145 37.2924C24.1338 37.8558 22.7607 38.1376 21.1934 38.1376ZM21.1934 34.5189C22.127 34.5189 22.8662 34.246 23.4121 33.7001C23.9756 33.1365 24.2578 32.3706 24.2578 31.402C24.2578 30.4336 23.9756 29.6764 23.4121 29.1306C22.8662 28.567 22.127 28.2853 21.1934 28.2853C20.2598 28.2853 19.5117 28.567 18.9482 29.1306C18.4023 29.6764 18.1299 30.4336 18.1299 31.402C18.1299 32.3706 18.4023 33.1365 18.9482 33.7001C19.5117 34.246 20.2598 34.5189 21.1934 34.5189Z" fill="#FFFFFF" fill-opacity="1.000000" fill-rule="nonzero"/>
	<path id="Vector" d="M37.7441 43.8167C36.8994 43.8167 36.0449 43.7374 35.1826 43.5789C34.3369 43.4203 33.6064 43.2091 32.9902 42.9449L32.9902 39.7225C34.3809 40.3211 35.9658 40.6205 37.7441 40.6205C39.0303 40.6205 39.9541 40.3563 40.5176 39.8281C41.0986 39.2999 41.3896 38.525 41.3896 37.5037L41.3896 36.7377C40.8789 37.1779 40.2451 37.5212 39.4873 37.7678C38.748 38.0144 37.9561 38.1376 37.1104 38.1376C35.7725 38.1376 34.5928 37.8558 33.5713 37.2924C32.5498 36.7288 31.748 35.9364 31.168 34.9152C30.6035 33.8937 30.3223 32.7228 30.3223 31.402C30.3223 30.0638 30.6035 28.884 31.168 27.8627C31.7305 26.8413 32.5234 26.0576 33.5449 25.5118C34.5664 24.9484 35.7373 24.6666 37.0576 24.6666C38.8711 24.6666 40.3682 25.2213 41.5479 26.3307L41.5479 25.0627L46.0381 25.0627L46.0381 36.8698C46.0381 39.0709 45.3604 40.7791 44.0049 41.9941C42.666 43.2091 40.5791 43.8167 37.7441 43.8167ZM38.2725 34.5453C38.9951 34.5453 39.6377 34.3605 40.2012 33.9907C40.7646 33.6208 41.1602 33.1278 41.3896 32.5114L41.3896 30.2928C41.1426 29.6764 40.7383 29.1921 40.1748 28.8399C39.6113 28.4702 38.9775 28.2853 38.2725 28.2853C37.3223 28.2853 36.5557 28.567 35.9746 29.1306C35.3936 29.6764 35.1035 30.4247 35.1035 31.3757C35.1035 32.3441 35.3936 33.119 35.9746 33.7001C36.5557 34.2635 37.3223 34.5453 38.2725 34.5453Z" fill="#FFFFFF" fill-opacity="1.000000" fill-rule="nonzero"/>
	<path id="Vector" d="M55.0361 38.1376C53.4688 38.1376 52.0957 37.8558 50.916 37.2924C49.7363 36.7112 48.8203 35.9188 48.1689 34.9152C47.5352 33.8937 47.2178 32.7228 47.2178 31.402C47.2178 30.0814 47.5352 28.9192 48.1689 27.9155C48.8203 26.8941 49.7363 26.1017 50.916 25.5383C52.0957 24.9571 53.4688 24.6666 55.0361 24.6666C56.6035 24.6666 57.9766 24.9571 59.1572 25.5383C60.3369 26.1017 61.2432 26.8941 61.8779 27.9155C62.5293 28.9192 62.8545 30.0814 62.8545 31.402C62.8545 32.7228 62.5293 33.8937 61.8779 34.9152C61.2432 35.9188 60.3369 36.7112 59.1572 37.2924C57.9766 37.8558 56.6035 38.1376 55.0361 38.1376ZM55.0361 34.5189C55.9697 34.5189 56.709 34.246 57.2549 33.7001C57.8184 33.1365 58.1006 32.3706 58.1006 31.402C58.1006 30.4336 57.8184 29.6764 57.2549 29.1306C56.709 28.567 55.9697 28.2853 55.0361 28.2853C54.1035 28.2853 53.3545 28.567 52.791 29.1306C52.2451 29.6764 51.9727 30.4336 51.9727 31.402C51.9727 32.3706 52.2451 33.1365 52.791 33.7001C53.3545 34.246 54.1035 34.5189 55.0361 34.5189Z" fill="#FFFFFF" fill-opacity="1.000000" fill-rule="nonzero"/>
	<path id="Vector" d="M137.418 19.2781L142.094 19.2781L142.094 37.7413L137.418 37.7413L137.418 19.2781Z" fill="#FFFFFF" fill-opacity="1.000000" fill-rule="nonzero"/>
	<path id="Vector" d="M144.461 25.0627L148.952 25.0627L148.952 26.3307C150.131 25.2213 151.628 24.6666 153.441 24.6666C154.762 24.6666 155.934 24.9484 156.954 25.5118C157.977 26.0576 158.768 26.8413 159.331 27.8627C159.896 28.8663 160.178 30.0375 160.178 31.3757C160.178 32.6964 159.896 33.8762 159.331 34.9152C158.768 35.9364 157.977 36.7288 156.954 37.2924C155.951 37.8558 154.78 38.1376 153.441 38.1376C152.597 38.1376 151.786 38.0056 151.013 37.7413C150.255 37.4949 149.62 37.1514 149.11 36.7112L149.11 43.526L144.461 43.526L144.461 25.0627ZM152.227 34.5189C153.178 34.5189 153.944 34.2372 154.524 33.6736C155.105 33.1102 155.396 32.3441 155.396 31.3757C155.396 30.4071 155.105 29.65 154.524 29.1041C153.944 28.5406 153.178 28.2589 152.227 28.2589C151.522 28.2589 150.888 28.4437 150.324 28.8135C149.761 29.1658 149.357 29.65 149.11 30.2663L149.11 32.5114C149.357 33.1278 149.761 33.6208 150.324 33.9907C150.888 34.3428 151.522 34.5189 152.227 34.5189Z" fill="#FFFFFF" fill-opacity="1.000000" fill-rule="nonzero"/>
	<path id="Vector" d="M167.107 38.1376C166.087 38.1376 165.021 38.032 163.912 37.8206C162.803 37.627 161.922 37.3452 161.271 36.9754L161.271 33.5681C161.992 33.9907 162.854 34.3428 163.859 34.6246C164.88 34.8887 165.813 35.0208 166.659 35.0208C167.274 35.0208 167.725 34.9767 168.006 34.8887C168.288 34.8007 168.429 34.6246 168.429 34.3605C168.429 34.149 168.332 33.9818 168.139 33.8586C167.963 33.7177 167.627 33.5768 167.134 33.436C166.659 33.2775 166.104 33.1102 165.47 32.934C164.396 32.6171 163.552 32.2913 162.935 31.9567C162.318 31.6221 161.86 31.1995 161.561 30.6889C161.262 30.1783 161.112 29.5355 161.112 28.7607C161.112 27.3871 161.649 26.3659 162.724 25.6967C163.814 25.0099 165.303 24.6666 167.188 24.6666C168.104 24.6666 169.063 24.7634 170.066 24.9571C171.088 25.1509 171.853 25.4062 172.364 25.7231L172.364 29.0778C171.837 28.7255 171.131 28.4349 170.251 28.2061C169.389 27.9771 168.578 27.8627 167.82 27.8627C167.223 27.8627 166.756 27.9243 166.421 28.0475C166.087 28.1532 165.92 28.3469 165.92 28.6287C165.92 28.8928 166.087 29.0953 166.421 29.2361C166.756 29.377 167.354 29.5532 168.217 29.7644C168.78 29.9053 169.019 29.9669 168.93 29.9493C170.057 30.2487 170.929 30.5833 171.545 30.9531C172.162 31.3229 172.593 31.7631 172.84 32.2737C173.104 32.7667 173.236 33.4008 173.236 34.1755C173.236 35.3906 172.708 36.359 171.651 37.0811C170.612 37.7854 169.097 38.1376 167.107 38.1376Z" fill="#FFFFFF" fill-opacity="1.000000" fill-rule="nonzero"/>
	<path id="Vector" d="M180.177 38.1378C178.434 38.1378 177.122 37.6535 176.241 36.6851C175.379 35.7165 174.947 34.4399 174.947 32.8551L174.947 25.0629L179.597 25.0629L179.597 32.3267C179.597 33.7883 180.256 34.519 181.577 34.519C182.176 34.519 182.722 34.3782 183.215 34.0964C183.707 33.8146 184.112 33.4009 184.429 32.8551L184.429 25.0629L189.078 25.0629L189.078 37.7415L184.589 37.7415L184.589 36.368C184.043 36.9491 183.382 37.3893 182.606 37.6887C181.833 37.9881 181.022 38.1378 180.177 38.1378Z" fill="#FFFFFF" fill-opacity="1.000000" fill-rule="nonzero"/>
	<path id="Vector" d="M191.458 25.0627L195.764 25.0627L195.764 26.4363C196.292 25.8729 196.9 25.4414 197.586 25.142C198.272 24.825 199.004 24.6666 199.778 24.6666C200.729 24.6666 201.487 24.8074 202.051 25.0892C202.632 25.371 203.098 25.7936 203.45 26.357C203.979 25.8288 204.621 25.4149 205.379 25.1157C206.137 24.8163 206.902 24.6666 207.676 24.6666C209.35 24.6666 210.538 25.098 211.242 25.9609C211.946 26.8061 212.299 28.0298 212.299 29.6323L212.299 37.7413L207.861 37.7413L207.861 30.2928C207.861 29.5884 207.729 29.0778 207.465 28.7607C207.201 28.4437 206.761 28.2853 206.146 28.2853C205.353 28.2853 204.709 28.567 204.216 29.1306C204.234 29.4298 204.243 29.8878 204.243 30.504L204.243 37.7413L199.806 37.7413L199.806 30.1078C199.806 29.4562 199.691 28.9896 199.462 28.7079C199.232 28.4261 198.827 28.2853 198.248 28.2853C197.349 28.2853 196.574 28.787 195.922 29.7908L195.922 37.7413L191.458 37.7413L191.458 25.0627Z" fill="#FFFFFF" fill-opacity="1.000000" fill-rule="nonzero"/>
</svg>
