<svg width="206.904297" height="59.000000" viewBox="0 0 206.904 59" fill="none" xmlns="http://www.w3.org/2000/svg" xmlns:xlink="http://www.w3.org/1999/xlink">
	<desc>
			Created with Pixso.
	</desc>
	<defs/>
	<path id="Vector" d="M29.5 0C25.626 0 21.79 0.763123 18.2109 2.24554C14.6318 3.72815 11.3799 5.901 8.64062 8.64032C5.90137 11.3798 3.72852 14.6317 2.24512 18.2108C0.762695 21.7899 0 25.626 0 29.5C0 33.374 0.762695 37.2101 2.24512 40.7892C3.72852 44.3683 5.90137 47.6202 8.64062 50.3597C11.3799 53.099 14.6318 55.2719 18.2109 56.7545C21.79 58.2369 25.626 59 29.5 59L29.5 44.25C27.5625 44.25 25.6445 43.8685 23.8555 43.1271C22.0654 42.3859 20.4395 41.2995 19.0703 39.9299C17.7002 38.5602 16.6143 36.9341 15.873 35.1446C15.1318 33.355 14.75 31.4371 14.75 29.5C14.75 27.5629 15.1318 25.645 15.873 23.8554C16.6143 22.0659 17.7002 20.4398 19.0703 19.0701C20.4395 17.7005 22.0654 16.6141 23.8555 15.8729C25.6445 15.1315 27.5625 14.75 29.5 14.75L29.5 0Z" fill="#0F52FF" fill-opacity="1.000000" fill-rule="nonzero"/>
	<path id="Vector" d="M39.334 29.5C39.334 34.9308 34.9307 39.3333 29.5 39.3333C24.0693 39.3333 19.667 34.9308 19.667 29.5C19.667 24.0692 24.0693 19.6667 29.5 19.6667C34.9307 19.6667 39.334 24.0692 39.334 29.5Z" fill="#0F52FF" fill-opacity="1.000000" fill-rule="evenodd"/>
	<path id="Vector" d="M0 29.5C0 33.374 0.762695 37.2101 2.24512 40.7892C3.72852 44.3683 5.90137 47.6202 8.64062 50.3597C11.3799 53.099 14.6318 55.2719 18.2109 56.7545C21.79 58.2369 25.626 59 29.5 59C33.374 59 37.21 58.2369 40.7891 56.7545C44.3682 55.2719 47.6201 53.099 50.3594 50.3597C53.0986 47.6202 55.2715 44.3683 56.7549 40.7892C58.2373 37.2101 59 33.374 59 29.5L44.25 29.5C44.25 31.4371 43.8682 33.355 43.127 35.1446C42.3857 36.9341 41.2998 38.5602 39.9297 39.9299C38.5605 41.2995 36.9346 42.3859 35.1445 43.1271C33.3555 43.8685 31.4375 44.25 29.5 44.25C27.5625 44.25 25.6445 43.8685 23.8555 43.1271C22.0654 42.3859 20.4395 41.2995 19.0703 39.9299C17.7002 38.5602 16.6143 36.9341 15.873 35.1446C15.1318 33.355 14.75 31.4371 14.75 29.5L0 29.5Z" fill="#5BD0F4" fill-opacity="1.000000" fill-rule="nonzero"/>
	<path id="Vector" d="M39.334 29.5001C39.334 26.8922 38.2979 24.3911 36.4541 22.5469C34.6094 20.7027 32.1084 19.6667 29.5 19.6667C26.8926 19.6667 24.3916 20.7027 22.5469 22.5469C20.7031 24.3911 19.667 26.8922 19.667 29.5001L29.5 29.5001L39.334 29.5001Z" fill="#5BD0F4" fill-opacity="1.000000" fill-rule="nonzero"/>
	<path id="Vector" d="M74.4072 18.4164L70.7432 18.4164L70.7432 38.7714L74.4072 38.7714L74.4072 18.4164Z" fill="#0F52FF" fill-opacity="1.000000" fill-rule="nonzero"/>
	<path id="Vector" d="M76.7988 31.5604C76.7988 36.2712 80.0557 39.179 84.3594 39.179C88.6631 39.179 91.9199 36.2712 91.9199 31.5604C91.9199 26.8497 88.6631 23.9418 84.3594 23.9418C80.0557 23.9418 76.7988 26.8497 76.7988 31.5604ZM80.4629 31.5604C80.4629 28.7689 82.0908 27.1405 84.3594 27.1405C86.627 27.1405 88.2559 28.7689 88.2559 31.5604C88.2559 34.352 86.627 35.9803 84.3594 35.9803C82.0908 35.9803 80.4629 34.352 80.4629 31.5604Z" fill="#0F52FF" fill-opacity="1.000000" fill-rule="nonzero"/>
	<path id="Vector" d="M105.013 24.3489L105.013 26.2971L104.722 26.2971C103.85 25.0468 102.454 23.9418 99.9531 23.9418C96.5215 23.9418 93.4395 26.8497 93.4395 31.3278C93.4395 35.8059 96.5215 38.7137 99.9531 38.7137C102.454 38.7137 103.85 37.5796 104.664 36.4456L104.954 36.4456L104.954 37.8414C104.954 40.6329 103.326 41.9124 100.941 41.9124C98.5576 41.9124 97.3359 40.6329 96.8418 38.9754L93.5557 40.4003C94.3115 42.5811 96.5215 44.9948 101 44.9948C105.595 44.9948 108.618 42.5811 108.618 37.9285L108.618 24.3489L105.013 24.3489ZM101.058 35.5732C98.79 35.5732 97.1035 33.9449 97.1035 31.3278C97.1035 28.7107 98.79 27.0823 101.058 27.0823C103.326 27.0823 105.013 28.7107 105.013 31.3278C105.013 33.9449 103.326 35.5732 101.058 35.5732Z" fill="#0F52FF" fill-opacity="1.000000" fill-rule="nonzero"/>
	<path id="Vector" d="M110.989 31.5604C110.989 36.2712 114.246 39.179 118.55 39.179C122.854 39.179 126.11 36.2712 126.11 31.5604C126.11 26.8497 122.854 23.9418 118.55 23.9418C114.246 23.9418 110.989 26.8497 110.989 31.5604ZM114.653 31.5604C114.653 28.7689 116.281 27.1405 118.55 27.1405C120.817 27.1405 122.446 28.7689 122.446 31.5604C122.446 34.352 120.817 35.9803 118.55 35.9803C116.281 35.9803 114.653 34.352 114.653 31.5604Z" fill="#0F52FF" fill-opacity="1.000000" fill-rule="nonzero"/>
	<path id="Vector" d="M128.986 20.161C128.986 21.6441 130.121 22.6618 131.575 22.6618C133.028 22.6618 134.163 21.6441 134.163 20.161C134.163 18.6781 133.028 17.6603 131.575 17.6603C130.121 17.6603 128.986 18.6781 128.986 20.161ZM133.406 24.3483L129.743 24.3483L129.743 38.7713L133.406 38.7713L133.406 24.3483Z" fill="#5BD0F4" fill-opacity="1.000000" fill-rule="nonzero"/>
	<path id="Vector" d="M136.671 44.5876L140.336 44.5876L140.336 36.9109L140.626 36.9109C141.439 38.074 142.836 39.179 145.337 39.179C148.768 39.179 151.851 36.2712 151.851 31.5604C151.851 26.8497 148.768 23.9418 145.337 23.9418C142.836 23.9418 141.439 25.0468 140.568 26.2973L140.276 26.2973L140.276 24.3489L136.671 24.3489L136.671 44.5876ZM144.231 36.0385C141.964 36.0385 140.276 34.4101 140.276 31.5604C140.276 28.7107 141.964 27.0823 144.231 27.0823C146.5 27.0823 148.186 28.7107 148.186 31.5604C148.186 34.4101 146.5 36.0385 144.231 36.0385Z" fill="#5BD0F4" fill-opacity="1.000000" fill-rule="nonzero"/>
	<path id="Vector" d="M153.988 28.3909C153.988 31.2407 156.372 32.2875 159.396 32.869L160.152 33.0143C161.955 33.3633 162.769 33.7996 162.769 34.73C162.769 35.6606 161.955 36.3875 160.27 36.3875C158.582 36.3875 157.216 35.6896 156.837 33.5959L153.464 34.4683C153.959 37.4924 156.488 39.179 160.27 39.179C163.933 39.179 166.317 37.4634 166.317 34.4393C166.317 31.4149 163.875 30.6009 160.618 29.9612L159.861 29.8157C158.349 29.5249 157.535 29.1178 157.535 28.1583C157.535 27.2859 158.292 26.7334 159.688 26.7334C161.083 26.7334 162.071 27.3149 162.42 28.8852L165.736 27.8676C165.038 25.5413 162.916 23.9418 159.688 23.9418C156.256 23.9418 153.988 25.5413 153.988 28.3909Z" fill="#5BD0F4" fill-opacity="1.000000" fill-rule="nonzero"/>
	<path id="Vector" d="M182.775 38.7714L182.775 24.3484L179.112 24.3484L179.112 31.7925C179.112 34.4677 177.804 36.038 175.563 36.038C173.586 36.038 172.482 34.9622 172.482 32.7812L172.482 24.3484L168.817 24.3484L168.817 32.9556C168.817 36.5324 171.058 39.004 174.431 39.004C177.076 39.004 178.298 37.8408 178.88 36.6196L179.169 36.6196L179.169 38.7714L182.775 38.7714Z" fill="#5BD0F4" fill-opacity="1.000000" fill-rule="nonzero"/>
	<path id="Vector" d="M186.025 24.3486L186.025 38.7715L189.69 38.7715L189.69 30.1643C189.69 28.187 190.621 27.082 192.307 27.082C193.761 27.082 194.633 27.8962 194.633 29.4664L194.633 38.7715L198.298 38.7715L198.298 30.1643C198.298 28.187 199.228 27.082 200.914 27.082C202.368 27.082 203.24 27.8962 203.24 29.4664L203.24 38.7715L206.904 38.7715L206.904 29.2919C206.904 25.8026 204.752 24.116 202.077 24.116C199.722 24.116 198.646 25.1628 197.948 26.3841L197.657 26.3841C196.987 25.0175 195.796 24.116 193.702 24.116C191.608 24.116 190.474 25.0465 189.923 26.1515L189.631 26.1515L189.631 24.3486L186.025 24.3486Z" fill="#5BD0F4" fill-opacity="1.000000" fill-rule="nonzero"/>
</svg>
